<svg xmlns="http://www.w3.org/2000/svg" width="98" height="60" fill="none"><path fill="#3CB27F" fill-rule="evenodd" d="M35.588 7.647V0H20.882v14.412H6.765v14.706H0v7.647h6.765V60h7.647V36.765h6.47v8.53h7.647V22.058h6.765v-7.647H28.53V7.647h7.06ZM14.412 22.06h6.47v7.059h-6.47v-7.06Z" clip-rule="evenodd"/><path fill="#193C3F" fill-rule="evenodd" d="M71.177 12.353h-2.354V31.47h2.354V12.353Zm-15 5.588h-2.353v13.53h11.764V17.94h-2.353v11.177h-7.059V17.94Zm35.882-5.588h2.353V31.47h-2.353V12.353Zm-47.941.294v5.882H41.47v2.353h2.647v10.589h2.353V20.882h5.294V18.53H46.47V15h5.294v-2.353h-7.647Zm31.764 0v5.883h-2.647v2.352h2.647v10.589h2.353V20.882h5.294V18.53h-5.294V15h5.294v-2.353h-7.647Zm12.647 1.618a1.618 1.618 0 1 1-3.235 0 1.618 1.618 0 0 1 3.235 0Zm-2.94 3.382h2.352v13.824h-2.353V17.647Z" clip-rule="evenodd"/><path fill="#193C3F" d="M83.594 34.412a.882.882 0 1 0 0-1.765.882.882 0 0 0 0 1.765ZM84.182 41.176v-5.882h-1.176v5.883h1.176Z"/><path fill="#193C3F" fill-rule="evenodd" d="M55.353 36.158v-3.466h1.055v8.484h-1.055v-1.042c-.517.8-1.28 1.2-2.29 1.2-.857 0-1.58-.307-2.17-.921-.598-.622-.897-1.378-.897-2.267 0-.88.299-1.632.897-2.254.598-.622 1.32-.933 2.17-.933 1.01 0 1.773.4 2.29 1.2Zm-2.157 4.158c.614 0 1.127-.206 1.539-.618.412-.428.618-.946.618-1.552 0-.614-.206-1.127-.618-1.539-.412-.42-.925-.63-1.54-.63-.605 0-1.114.21-1.527.63-.412.412-.618.925-.618 1.54 0 .605.206 1.123.618 1.55.413.413.922.619 1.528.619ZM49.099 38.631h-5.08c.106.533.352.954.74 1.26.388.3.873.45 1.455.45.8 0 1.382-.296 1.745-.886l.897.51c-.598.912-1.487 1.369-2.666 1.369-.954 0-1.738-.299-2.352-.897-.598-.614-.897-1.378-.897-2.29 0-.922.295-1.681.885-2.28.59-.605 1.353-.908 2.29-.908.89 0 1.613.315 2.17.945.566.614.849 1.366.849 2.254 0 .154-.012.311-.036.473Zm-2.982-2.678c-.558 0-1.026.157-1.406.472-.372.315-.602.744-.691 1.285h4.048c-.089-.558-.31-.99-.666-1.297a1.9 1.9 0 0 0-1.285-.46Z" clip-rule="evenodd"/><path fill="#193C3F" d="M66.948 41.334c-.913 0-1.672-.303-2.278-.909-.606-.614-.91-1.374-.91-2.279 0-.905.304-1.66.91-2.266.606-.614 1.365-.921 2.278-.921.598 0 1.136.145 1.612.436.477.283.833.666 1.067 1.151l-.885.51a1.786 1.786 0 0 0-.715-.776 2.016 2.016 0 0 0-1.079-.291c-.606 0-1.115.206-1.527.618-.404.42-.606.933-.606 1.54 0 .597.202 1.106.606 1.526.412.413.921.619 1.527.619.404 0 .768-.093 1.091-.28.323-.193.57-.452.74-.775l.896.521a2.967 2.967 0 0 1-1.127 1.152 3.118 3.118 0 0 1-1.6.424Z"/><path fill="#193C3F" fill-rule="evenodd" d="M75.652 36.158v-1.042h1.054v6.06h-1.054v-1.042c-.517.8-1.281 1.2-2.291 1.2-.857 0-1.58-.307-2.17-.921-.598-.622-.897-1.378-.897-2.267 0-.88.3-1.632.897-2.254.598-.622 1.321-.933 2.17-.933 1.01 0 1.773.4 2.29 1.2Zm-2.158 4.158c.614 0 1.127-.206 1.54-.618.412-.428.618-.946.618-1.552 0-.614-.206-1.127-.618-1.539-.413-.42-.926-.63-1.54-.63-.606 0-1.115.21-1.527.63-.412.412-.618.925-.618 1.54 0 .605.206 1.123.618 1.55.412.413.921.619 1.527.619ZM88.125 41.334c.897 0 1.652-.307 2.266-.921.622-.622.934-1.378.934-2.267s-.312-1.644-.934-2.266c-.614-.614-1.37-.921-2.266-.921-.897 0-1.653.307-2.267.92-.614.615-.921 1.37-.921 2.267 0 .897.307 1.653.921 2.267.614.614 1.37.921 2.267.921Zm1.527-1.648c-.412.412-.921.618-1.527.618a2.06 2.06 0 0 1-1.515-.618c-.412-.413-.618-.926-.618-1.54s.206-1.127.618-1.539a2.06 2.06 0 0 1 1.515-.618c.606 0 1.115.206 1.527.618.412.412.618.925.618 1.54 0 .613-.206 1.127-.618 1.539Z" clip-rule="evenodd"/><path fill="#193C3F" d="M58.773 35.294h-.972v5.883h4.86v-5.883h-.972v4.91h-2.916v-4.91ZM78.741 41.176h3.383v-1.029H79.77v-3.97h2.353v-1.03H79.77v-1.03h-1.03v1.03h-1.03v1.03h1.03v5ZM92.124 35.294v6.177h1.029v-5.147h3.088v5.147h1.03v-6.177h-5.147Z"/></svg>